HIERARCHY
ROOT Hips
{
	OFFSET 0.00 0.00 0.00
	CHANNELS 6 Xposition Yposition Zposition Xrotation Yrotation Zrotation
	JOINT Spine
	{
		OFFSET 0.00000 7.50895 0.00000
		CHANNELS 3 Xrotation Yrotation Zrotation
		JOINT Head
		{
			OFFSET 0.00000 13.86115 0.00000
			CHANNELS 3 Xrotation Yrotation Zrotation
			End Site
			{
				OFFSET 0.00000 4.52755 0.00000
			}
		}
		JOINT LeftShoulder
		{
			OFFSET 0.00000 8.20478 0.00000
			CHANNELS 3 Xrotation Yrotation Zrotation
			JOINT LeftArm
			{
				OFFSET 6.63596 0.00000 0.00000
				CHANNELS 3 Xrotation Yrotation Zrotation
				JOINT LeftForeArm
				{
					OFFSET 10.27422 0.00000 0.00000
					CHANNELS 3 Yrotation Zrotation Xrotation
					JOINT LeftHand
					{
						OFFSET 8.52215 0.00000 0.00000
						CHANNELS 3 Xrotation Yrotation Zrotation
						JOINT LeftHandThumb1
						{
							OFFSET 0.00000 0.00000 0.00000
							CHANNELS 3 Xrotation Zrotation Yrotation
							End Site
							{
								OFFSET 0.00000 0.00000 3.93700
							}
						}
						End Site
						{
							OFFSET 3.93700 0.00000 0.00000
						}
					}
				}
			}
		}
		JOINT RightShoulder
		{
			OFFSET 0.00000 8.20478 0.00000
			CHANNELS 3 Xrotation Yrotation Zrotation
			JOINT RightArm
			{
				OFFSET -6.63596 0.00000 0.00000
				CHANNELS 3 Xrotation Yrotation Zrotation
				JOINT RightForeArm
				{
					OFFSET -10.27422 0.00000 0.00000
					CHANNELS 3 Yrotation Zrotation Xrotation
					JOINT RightHand
					{
						OFFSET -8.52215 0.00000 0.00000
						CHANNELS 3 Xrotation Yrotation Zrotation
						JOINT RightHandThumb1
						{
							OFFSET 0.00000 0.00000 0.00000
							CHANNELS 3 Xrotation Zrotation Yrotation
							End Site
							{
								OFFSET 0.00000 0.00000 3.93700
							}
						}
						End Site
						{
							OFFSET -3.93700 0.00000 0.00000
						}
					}
				}
			}
		}
	}
	JOINT LeftUpLeg
	{
		OFFSET 3.00056 0.00000 0.00000
		CHANNELS 3 Xrotation Yrotation Zrotation
		JOINT LeftLeg
		{
			OFFSET 0.00000 -16.49085 0.00000
			CHANNELS 3 Xrotation Yrotation Zrotation
			JOINT LeftFoot
			{
				OFFSET 0.00000 -14.55658 0.00000
				CHANNELS 3 Xrotation Yrotation Zrotation
				JOINT LeftToeBase
				{
					OFFSET 0.00000 -1.25038 4.66650
					CHANNELS 3 Xrotation Yrotation Zrotation
					End Site
					{
						OFFSET 0.00000 0.00000 2.95275
					}
				}
			}
		}
	}
	JOINT RightUpLeg
	{
		OFFSET -3.00056 0.00000 0.00000
		CHANNELS 3 Xrotation Yrotation Zrotation
		JOINT RightLeg
		{
			OFFSET 0.00000 -16.49085 0.00000
			CHANNELS 3 Xrotation Yrotation Zrotation
			JOINT RightFoot
			{
				OFFSET 0.00000 -14.55658 0.00000
				CHANNELS 3 Xrotation Yrotation Zrotation
				JOINT RightToeBase
				{
					OFFSET 0.00000 -1.25038 4.66650
					CHANNELS 3 Xrotation Yrotation Zrotation
					End Site
					{
						OFFSET 0.00000 0.00000 2.95275
					}
				}
			}
		}
	}
}
MOTION
Frames: 9
Frame Time: 0.008333
 -8.6487 32.3145 -7.8647 0.8845 42.7479 17.9936 10.4178 -3.5311 0.5164 -12.5806 12.6105 -6.8753 4.4078 -0.6307 14.7134 -55.1601 -11.9090 -70.8590 -38.9459 -0.0000 -3.1781 -19.1116 19.0271 46.7454 33.1476 -0.0000 26.2537 -16.4916 -4.8875 -20.3263 20.0583 30.0548 72.7092 26.8146 0.0000 19.3604 0.2994 -1.1247 14.9068 32.8623 0.0000 -24.3270 -112.5262 22.1304 23.4257 106.2664 0.0000 0.0000 41.8947 1.2341 -41.3676 19.2095 -0.0000 0.0000 -22.8228 -9.6676 -15.4283 37.4877 0.0000 -0.0000 -25.4924 -20.8207 -23.4546 0.2835 -0.0000 0.0000
 -8.6326 32.3299 -7.8623 0.7731 42.6952 18.3020 10.4415 -3.7286 0.1722 -12.5206 12.8574 -6.7519 4.4601 -0.6191 14.7796 -55.0574 -12.1038 -70.5887 -38.7076 -0.0000 -2.9830 -19.4947 19.0599 47.3103 33.1476 -0.0000 26.2537 -16.5223 -4.9241 -20.2559 20.0181 30.0926 72.8119 26.8531 0.0000 19.3431 0.2860 -1.0740 14.9146 32.8623 0.0000 -24.3270 -111.7905 21.1896 23.0549 106.3104 0.0000 -0.0000 41.6913 1.2059 -40.8268 19.5453 0.0000 0.0000 -22.7422 -9.5314 -15.6626 37.4835 0.0000 -0.0000 -25.4681 -20.8109 -23.4016 0.2844 -0.0000 -0.0000
 -8.6136 32.3471 -7.8625 0.6330 42.6311 18.6562 10.4947 -3.9177 -0.2142 -12.4923 13.0476 -6.6164 4.5173 -0.5835 14.8691 -55.0056 -12.2228 -70.3720 -38.4761 -0.0000 -2.8703 -19.7536 19.1557 47.5804 33.1476 -0.0000 26.2537 -16.5217 -4.9978 -20.1700 19.9573 30.1228 72.8917 26.9384 0.0000 19.3395 0.2983 -1.1321 14.7619 32.8623 0.0000 -24.3270 -110.9214 19.9479 22.6078 106.2769 0.0000 0.0000 41.9709 0.7382 -41.0838 20.0466 0.0000 -0.0000 -22.6256 -9.3042 -15.9003 37.4876 0.0000 -0.0000 -25.4326 -20.8711 -23.4062 0.3042 -0.0000 0.0000
 -8.5931 32.3652 -7.8614 0.4964 42.5617 19.0349 10.5174 -4.1216 -0.6494 -12.4468 13.2979 -6.4433 4.5714 -0.5682 14.9232 -54.8223 -12.4453 -70.0320 -38.3012 -0.0000 -2.8905 -19.9145 19.1167 47.8873 33.1476 -0.0000 26.2537 -16.4887 -5.0568 -20.0684 19.8815 30.2235 72.9820 26.9802 0.0000 19.3466 0.2934 -1.1068 14.8489 32.8623 0.0000 -24.3270 -110.0612 18.7362 22.1366 106.3116 0.0000 -0.0000 42.0829 0.7055 -41.0237 19.8647 -0.0000 0.0000 -22.5118 -9.0533 -16.1593 37.5065 -0.0000 0.0000 -25.4042 -20.9572 -23.3674 0.3139 0.0000 -0.0000
 -8.5682 32.3859 -7.8621 0.3497 42.4700 19.4862 10.5477 -4.3196 -1.1866 -12.4059 13.5388 -6.2037 4.6241 -0.5211 14.9974 -54.6837 -12.5867 -69.7352 -38.0983 -0.0000 -2.9022 -20.1084 19.1320 48.1649 33.1476 -0.0000 26.2537 -16.4731 -5.1147 -19.9714 19.8122 30.3832 73.0967 26.9648 0.0000 19.2606 0.2927 -1.1078 14.8037 32.8623 0.0000 -24.3270 -109.1385 17.3923 21.6439 106.3285 -0.0000 -0.0000 42.2382 0.4823 -40.7802 20.0251 0.0000 -0.0000 -22.3906 -8.7679 -16.4939 37.5257 -0.0000 0.0000 -25.3944 -20.9606 -23.3892 0.4006 0.0000 0.0000
 -8.5402 32.4109 -7.8706 0.2319 42.3927 20.0151 10.5466 -4.5051 -1.8418 -12.3809 13.6894 -5.9929 4.6592 -0.5098 15.0625 -54.5193 -12.7378 -69.4001 -37.8935 -0.0000 -2.8837 -20.1663 19.1545 48.2220 33.1476 -0.0000 26.2537 -16.4701 -5.1670 -19.8834 19.7644 30.3915 73.2552 27.0238 0.0000 19.3127 0.2901 -1.0976 14.8048 32.8623 0.0000 -24.3270 -108.1919 16.0486 21.1046 106.3687 0.0000 -0.0000 42.2839 0.3504 -40.3362 20.4648 0.0000 -0.0000 -22.3031 -8.4131 -16.9078 37.5284 -0.0000 0.0000 -25.3728 -21.1374 -23.3506 0.3381 0.0000 -0.0000
 -8.5105 32.4361 -7.8760 0.1325 42.2808 20.5040 10.5379 -4.6586 -2.4777 -12.3549 13.9158 -5.7809 4.6551 -0.4840 15.0994 -54.3112 -12.8951 -69.0652 -37.6847 -0.0000 -2.8282 -20.3290 19.1609 48.4616 33.1476 -0.0000 26.2537 -16.4841 -5.2534 -19.8056 19.7327 30.5456 73.3641 27.0567 0.0000 19.2783 0.2949 -1.1142 14.8273 32.8623 0.0000 -24.3270 -107.1862 14.4506 20.5119 106.4676 -0.0000 0.0000 42.4200 -0.0866 -39.9756 20.0427 -0.0000 0.0000 -22.2676 -8.2221 -17.3607 37.5414 -0.0000 -0.0000 -25.3226 -21.0792 -23.2659 0.2906 0.0000 -0.0000
 -8.4790 32.4625 -7.8787 0.0201 42.1161 21.0040 10.5192 -4.7722 -3.1366 -12.2221 14.1235 -5.5614 4.7589 -0.4294 15.1340 -54.2157 -13.0198 -68.7502 -37.4396 -0.0000 -2.7723 -20.2559 19.1514 48.3636 33.1476 -0.0000 26.2537 -16.4696 -5.2703 -19.7160 19.7233 30.6328 73.5060 27.0813 0.0000 19.3292 0.2930 -1.0965 14.9636 32.8623 0.0000 -24.3270 -106.1334 12.6651 19.9559 106.5814 0.0000 -0.0000 42.4695 -0.6452 -39.4887 20.2748 -0.0000 0.0000 -22.1696 -7.9412 -17.7742 37.5332 -0.0000 0.0000 -25.2911 -21.0615 -23.2417 0.3357 0.0000 0.0000
 -8.4457 32.4921 -7.8843 -0.0535 41.9030 21.5483 10.4912 -4.8098 -3.9015 -12.1156 14.3503 -5.3229 4.8078 -0.4307 15.1221 -53.9240 -13.4811 -68.2249 -37.2045 -0.0000 -3.0502 -20.3737 19.0385 48.7049 33.1476 -0.0000 26.2537 -16.4575 -5.3382 -19.6266 19.6832 30.7292 73.6799 27.0870 0.0000 19.4234 0.3160 -1.1883 14.8934 32.8623 0.0000 -24.3270 -105.0743 10.8491 19.4494 106.7284 0.0000 0.0000 42.4337 -0.8862 -39.8235 22.0654 0.0000 -0.0000 -22.1070 -7.5872 -18.2453 37.5417 0.0000 0.0000 -25.2254 -21.0296 -23.2361 0.3504 0.0000 -0.0000
